<svg xmlns="http://www.w3.org/2000/svg" version="1.1" xmlns:xlink="http://www.w3.org/1999/xlink" xmlns:svgjs="http://svgjs.dev/svgjs" viewBox="0 0 800 800" opacity="0.12"><g stroke-width="1" stroke="#b6cdef" fill="none"><path d="M709.2113486125239 230.97425065892992C748.6615083717884 318.7459919829048 742.7407364964204 510.9793104099849 697.9637514113133 596.1568619524091C653.1867663262062 681.3344134948334 615.2452761421572 638.2094534464445 494.28182020400936 639.8264980625664C373.31836426586176 641.4435426786883 193.19683552906292 698.1544761559409 117.33916290820423 603.9186761097942C41.48149028734559 509.6828760636473 48.651695445004066 276.8834437811586 130.16499162388737 187.49465784106172C211.67828780277068 98.10587190096481 387.96832686087737 165.79425509360766 508.6029845668436 174.8525035973302C629.2376422728097 183.91075210105276 669.7611888532595 143.20250933495498 709.2113486125239 230.97425065892992C748.6615083717884 318.7459919829048 742.7407364964204 510.9793104099849 697.9637514113133 596.1568619524091 "></path><path d="M681.1012232370601 246.3402625508205C716.9650048363915 326.132754663525 711.5824849496931 500.89031686996145 670.8761348723231 578.3244546358017C630.1697847949531 655.7585924016419 595.6775209912722 616.5540832667429 485.7107428656833 618.0241238268537C375.7439647400945 619.4941643869646 211.99712043391372 671.0495584571942 143.03559986949676 585.3806493243335C74.0740793050798 499.7117401914727 80.59244763022389 288.0758926619375 154.69544415648141 206.81335998912215C228.79844068273894 125.55082731630682 389.062112553745 187.0857211278003 498.72998319553244 195.32049249482077C608.3978538373198 203.5552638618413 645.2374416377288 166.54777043811606 681.1012232370601 246.3402625508205C716.9650048363915 326.132754663525 711.5824849496931 500.89031686996145 670.8761348723231 578.3244546358017 "></path><path d="M652.9910978615962 261.70621340755486C685.2685013009944 333.5194563089889 680.424233402966 490.80126229478174 643.7885183333331 560.4919862840379C607.1528032637 630.1827102732941 576.1097658403871 594.8986520518849 477.1396655273571 596.2216885559849C378.1695652143271 597.5447250600846 230.79740533876452 643.9445797232912 168.7320368307893 566.8425615037165C106.66666832281402 489.74054328414195 112.53319981544365 299.2682805075602 179.22589668907546 226.13200110202632C245.9185935627072 152.99572169649252 390.15589824661265 208.37712612683669 488.8569818242213 215.78842035715513C587.55806540183 223.19971458747358 620.7136944221982 189.89297050612083 652.9910978615962 261.70621340755486C685.2685013009944 333.5194563089889 680.424233402966 490.80126229478174 643.7885183333331 560.4919862840379 "></path><path d="M624.8809724861324 277.0722100406564C653.5719977655975 340.90620373082 649.2659818562389 480.7122534959692 616.7009017943429 542.6595637086414C584.1358217324469 604.6068739213135 556.5420106895021 573.2432666133943 468.56858818903106 574.4192990614831C380.59516568856 575.5953315095717 249.59769024361538 616.8396467657554 194.42847379208177 548.3045194594667C139.25925734054823 479.76939215317816 144.47395200066347 310.46071412955 203.7563492216695 245.45068799129774C263.0387464426755 180.44066185304547 391.2496839394804 229.6685769022402 478.9839804529104 236.25639399585663C566.7182769663402 242.84421108947305 596.1899472066674 213.23821635049285 624.8809724861324 277.0722100406564C653.5719977655975 340.90620373082 649.2659818562389 480.7122534959692 616.7009017943429 542.6595637086414 "></path><path d="M596.7708623694577 292.43817615617985C621.8755094889896 348.29292063507296 618.107745568301 470.62321417957844 589.6133005141418 524.8271106156667C561.1188554599828 579.0310070517548 536.9742707974061 551.5878506573255 459.99752610949395 552.6168790494032C383.0207814215818 553.6459074414807 268.39799040725524 589.7346832906414 220.12492601216337 529.7664468976388C171.8518616170715 469.79821050463636 176.41471944467236 321.6531172339617 228.2868170130526 264.769344362991C280.1589145814329 207.88557149202023 392.3434848911372 250.95999716006565 469.1109943403883 256.72433711698C545.8785037896396 262.4886770738944 571.6662152499258 236.58343167728668 596.7708623694577 292.43817615617985C621.8755094889896 348.29292063507296 618.107745568301 470.62321417957844 589.6133005141418 524.8271106156667 "></path><path d="M568.6607217352048 307.8041727892814C590.1789906948036 355.679668056904 586.9494787627847 460.5342053807659 562.5256687163626 506.99468804027003C538.1018586699406 553.4551706997743 517.406500387732 529.9324652188347 451.4264335123787 530.8144895549012C385.44636663702545 531.6965138909678 287.198260053317 562.6297503331057 245.82134771466679 511.2284048533892C204.4444353760166 459.8270593736727 208.35545637110306 332.84555085595156 252.81725428685758 284.08803125226234C297.2790522026121 235.33051164857318 393.4372553252158 272.25144793546923 459.2379777102882 277.19231075568155C525.0387000953606 282.13317357589386 547.142452775606 259.9286775216587 568.6607217352048 307.8041727892814C590.1789906948036 355.679668056904 586.9494787627847 460.5342053807659 562.5256687163626 506.99468804027003 "></path><path d="M540.5506116185301 323.1701236460157C558.4825024181957 363.066369702368 555.7912424748465 450.4451508055862 535.4380674361615 489.1622196885063C515.0848923974766 527.8792885714264 497.83876049563605 508.27703400397695 442.8553714328416 509.0120542840323C387.87198237004725 509.7470745640878 305.9985602169569 535.5247715992025 271.5177999347484 492.6903170327722C237.03703965253987 449.8558624663418 240.29622381511194 344.0379387015742 277.3477220782407 303.40667236516657C314.39922034136947 262.7754060287589 394.5310562768725 293.5428529345056 449.3649915977662 297.66023861801585C504.19892691865994 301.7776243015261 522.6187208188644 283.27387758966347 540.5506116185301 323.1701236460157C558.4825024181957 363.066369702368 555.7912424748465 450.4451508055862 535.4380674361615 489.1622196885063 "></path><path d="M512.4404862430662 338.53612027911726C526.7859988827988 370.453117124199 524.6329909281194 440.35614200677367 508.3504508971714 471.32979711310975C492.06791086622343 502.30345221944583 478.2710053447511 486.6216485654862 434.28429409451553 487.2096647895306C390.29758284428 487.7976810135749 324.7988451218077 508.41983864166673 297.2142368960409 474.15227498852244C269.6296286702741 439.88471133537814 272.2369760003317 355.2303723235641 301.8781746108348 322.72535925443793C331.5193732213378 290.22034618531177 395.6248419697402 314.8343037099092 439.4919902264552 318.1282122567174C483.3591384831701 321.42212080352556 498.09497360333376 306.6191234340355 512.4404862430662 338.53612027911726C526.7859988827988 370.453117124199 524.6329909281194 440.35614200677367 508.3504508971714 471.32979711310975 "></path><path d="M484.33037612639146 353.9020711358516C495.08951060619086 377.83981876966294 493.47475464018135 430.2670874315939 481.26284961697036 453.49732876134595C469.05094459375937 476.7275700910981 458.70326545265505 464.9662173506283 425.7132320149784 465.40722951866155C392.7231985773018 465.84824168669485 343.59914528544755 481.3148599077638 322.91068911612246 455.6141871679055C302.22223294679736 429.9135144280473 304.1777434443406 366.42276016918674 326.4086424022179 342.0440003673421C348.6395413600951 317.6652405654975 396.71864292139696 336.1257087089456 429.61900411393316 338.5961401190517C462.51936530646935 341.06657152915784 473.57124164659206 329.96432350204026 484.33037612639146 353.9020711358516C495.08951060619086 377.83981876966294 493.47475464018135 430.2670874315939 481.26284961697036 453.49732876134595 "></path><path d="M456.2202507509276 369.2680677689532C463.39300707079394 385.22656619149404 462.31650309345423 420.17807863278136 454.17523307798024 435.6649061859494C446.03396306250625 451.15173373911745 439.13551030177007 443.31083191213764 417.1421546766523 443.60484002415984C395.1487990515345 443.898848136182 362.39943019029835 454.2099269502279 348.607126077415 437.07614512365575C334.8148219645316 419.9423632970836 336.1184956295604 377.6151937911766 350.9390949348119 361.36268725661347C365.7596942400634 345.1101807220504 397.8124286142646 357.4171594843491 419.7460027426221 359.0641137577532C441.6795768709796 360.7110680311573 449.0474944310614 353.3095693464123 456.2202507509276 369.2680677689532C463.39300707079394 385.22656619149404 462.31650309345423 420.17807863278136 454.17523307798024 435.6649061859494 "></path><path d="M428.11012537546384 384.63401862568753C431.69650353539697 392.61326783695796 431.1582515467271 410.0890240576016 427.0876165389901 417.8324378341856C423.0169815312531 425.57585161076963 419.56775515088503 421.6554006972798 408.5710773383262 421.80240475329083C397.57439952576726 421.94940880930193 381.1997150951492 427.1049482163249 374.30356303870747 418.53805730303884C367.4074109822658 409.97116638975274 368.0592478147802 388.8075816367992 375.46954746740596 380.6813283695177C382.8798471200317 372.5550751022362 398.9062143071323 378.7085644833855 409.87300137131103 379.53204162008757C420.8397884354898 380.3555187567896 424.5237472155307 376.65476941441705 428.11012537546384 384.63401862568753C431.69650353539697 392.61326783695796 431.1582515467271 410.0890240576016 427.0876165389901 417.8324378341856 "></path></g></svg>