<svg xmlns="http://www.w3.org/2000/svg" version="1.1" xmlns:xlink="http://www.w3.org/1999/xlink" xmlns:svgjs="http://svgjs.dev/svgjs" viewBox="0 0 800 800" opacity="0.15"><g stroke-width="1" stroke="#b6cdef" fill="none"><path d="M720.0794962236391 103.64789945485597C772.6246743548522 234.9773053123199 682.2974499279369 636.6953487140768 578.5926100391704 732.8915792606044C474.88777015040387 829.0878098071321 327.5718125262813 634.3145001790236 222.2962647575605 565.3898060781892C117.02071698883975 496.4651119773548 94.21190044479408 481.023142745619 73.26998074931123 402.0530475765984C52.32806105382838 323.08295240757775 69.04468058173569 248.73806102352046 121.77505021924344 186.33334926689088C174.50541985675113 123.92863751026141 201.7289954250997 119.73656652228448 326.3757550093485 102.51043114477739C451.0225145935974 85.2842957672703 667.534318092426 -27.681506402607965 720.0794962236391 103.64789945485597C772.6246743548522 234.9773053123199 682.2974499279369 636.6953487140768 578.5926100391704 732.8915792606044 "></path><path d="M690.9813546546577 130.5890078273904C738.7496984103059 249.9793767887213 656.6340398403829 615.1775980630456 562.3569126687771 702.6287167417072C468.0797854971711 790.0798354203687 334.1561876570597 613.0131903039064 238.45114423094992 550.354377484966C142.74610080484013 487.6955646660256 122.01081303752585 473.6574108189932 102.97270422345053 401.8664152107925C83.93459540937522 330.07541960259186 99.13152225292737 262.48915470799443 147.06822192338893 205.75759856560393C195.00492159385044 149.02604242321348 219.7536266559855 145.2150687977799 333.0688626416663 129.5549457273189C446.38409862734716 113.89482265685791 643.2130108990094 11.198638866059525 690.9813546546577 130.5890078273904C738.7496984103059 249.9793767887213 656.6340398403829 615.1775980630456 562.3569126687771 702.6287167417072 "></path><path d="M661.8832741208325 157.5301161999248C704.8747835009159 264.9814482651226 630.9706907879853 593.6598474120144 546.12127633354 672.3658542228098C461.27186187909456 751.0718610336053 340.7406238229944 591.7118804287893 254.60608473949554 535.3189488917428C168.47154565599675 478.92601735469634 149.80978666541392 466.29167889236714 132.6754887327461 401.6797828449867C115.54119080007831 337.0678867976062 129.21842495927524 276.2402483924684 172.36145466269062 225.18184786431698C215.50448436610606 174.12344733616555 237.77831892202755 170.69357107327534 339.7620313091403 156.59946030986043C441.74574369625293 142.5053495464456 618.8917647407491 50.078784134727016 661.8832741208325 157.5301161999248C704.8747835009159 264.9814482651226 630.9706907879853 593.6598474120144 546.12127633354 672.3658542228098 "></path><path d="M632.7851172930621 184.47119405488104C670.9997922975806 279.98348922394575 605.3072654416424 572.1420662434052 529.8855637043575 642.1029611863346C454.46386196707294 712.0638561292639 347.32498369498376 570.4105400360941 270.76094895409585 520.2834897809416C194.19691421320806 470.1564395257892 177.60868399935663 458.9259164481632 162.3781969480964 401.4931199616028C147.1477098968361 344.0603234750423 159.3052513716778 289.99131155936425 197.65461110804705 244.6060666454519C236.0039708444163 199.22082173153956 255.80293489412435 196.1720428311927 346.45512368266895 183.6439443748239C437.1073124712136 171.11584591845508 594.5704422885435 88.95889888581632 632.7851172930621 184.47119405488104C670.9997922975806 279.98348922394575 605.3072654416424 572.1420662434052 529.8855637043575 642.1029611863346 "></path><path d="M603.6869757240806 211.41231768620452C637.1248163530344 294.98557595913616 579.6438553540884 550.6243308511632 513.6498663339642 611.8401139262264C447.65587731384016 673.0558970012894 353.90935882576207 549.1092454197658 286.9158284274853 505.2480764465075C219.92229802920838 461.38690747324927 205.4075965920884 451.56019978032646 192.0809204222357 401.30650285458603C178.75424425238293 351.0528059288456 189.39209304286948 303.74242050262734 222.94778281219254 264.030331202954C256.50347258151567 224.3182419032807 273.82756612501015 221.6505603654772 353.1482313149868 210.68847421615453C432.46889650496337 199.72638806683182 570.2491350951269 127.83905941327288 603.6869757240806 211.41231768620452C637.1248163530344 294.98557595913616 579.6438553540884 550.6243308511632 513.6498663339642 611.8401139262264 "></path><path d="M574.5888341550992 238.35341079994987C603.2498404084881 309.9876321767484 553.9804452665344 529.1065649413431 497.414168963571 581.5772361485399C440.8478926606074 634.0479073557369 360.4937339565405 527.8079202858595 303.07070790087465 490.2126325944953C245.64768184520875 452.61734490313097 233.20650918482022 444.19445259491147 221.783643896375 401.1198552299911C210.36077860792983 358.04525786507077 219.4789347140611 317.49349892831225 248.24095451633804 283.454565242878C277.002974318615 249.4156315574437 291.852197355896 247.12904738218356 359.8413389473044 237.732973539907C427.8304805387129 228.33689969763037 545.9278279017103 166.7191894231513 574.5888341550992 238.35341079994987C603.2498404084881 309.9876321767484 553.9804452665344 529.1065649413431 497.414168963571 581.5772361485399 "></path><path d="M545.4906925861179 265.2945344312733C569.374864463942 324.9897189119388 528.3170351789805 507.58882954910086 481.1784715931776 551.3143888884317C434.0399080073746 595.0399482277625 367.0781090873189 506.50662566953133 319.225587374264 475.17721926006107C271.3730656612091 443.8478128505909 261.005421777552 436.8287359270747 251.48636737051436 400.93323812297444C241.96731296347667 365.03774031887406 249.56577638525272 331.24460787157534 273.53412622048353 302.8788298003801C297.5024760557143 274.5130517291849 309.8768285867818 272.60756491646805 366.5344465796222 264.7775033812376C423.19206457246264 256.9474418460071 521.6065207082938 205.59934995060786 545.4906925861179 265.2945344312733C569.374864463942 324.9897189119388 528.3170351789805 507.58882954910086 481.1784715931776 551.3143888884317 "></path><path d="M516.3925510171365 292.23562754501864C535.4998885193958 339.991775129551 502.65362509142665 486.07106363928074 464.94277422278424 521.0515111107454C427.23192335414194 556.0319585822101 373.66248421809735 485.20530053562516 335.3804668476534 460.14177540804894C297.0984494772095 435.07825028047273 288.80433437028375 429.46298874165973 281.18909084465366 400.74659049837953C273.5738473190235 372.0301922550993 279.6526180564444 344.99568629726025 298.827297924629 322.3030638403041C318.00197779281365 299.6104413833479 327.9014598176676 298.0860519331745 373.22755421193995 291.8220027049901C418.5536486062123 285.55795347680566 497.2852135148772 244.4794799604863 516.3925510171365 292.23562754501864C535.4998885193958 339.991775129551 502.65362509142665 486.07106363928074 464.94277422278424 521.0515111107454 "></path><path d="M487.2944399657332 319.17670539997494C501.62494309242766 354.9938160883742 476.9902455214508 464.55328247067155 448.7071073699691 490.78861807426995C420.4239692184873 517.0239536778685 380.24688986645384 463.9039601429297 351.5353768386209 445.10631629724764C322.823863810788 426.3086724515655 316.6032774805937 422.09722629745573 310.8918448363711 400.55992761499556C305.1804121921485 379.0226289325354 309.73949024521414 358.74674946415615 324.1205001463526 341.727282621439C338.5015100474911 324.70781577872185 345.9261215661316 323.5645236910918 379.9206923618358 318.8664867699535C413.91526315754004 314.1684498488152 472.96393683903875 283.35959471157565 487.2944399657332 319.17670539997494C501.62494309242766 354.9938160883742 476.9902455214508 464.55328247067155 448.7071073699691 490.78861807426995 "></path><path d="M458.1962831379628 346.1177985137203C467.7499518890924 369.99587230598644 451.32682017510785 443.0355165608513 432.47139474078665 460.52574029658365C413.6159693064655 478.015964032316 386.8312497384432 442.6026350090235 367.69024105322126 430.0708724452354C348.54923236799925 417.5391098814473 344.4021748145364 414.7314791120408 340.59455305172133 400.3732799904007C336.7869312889063 386.0150808687606 339.8263166576167 372.49782788984106 349.413656591709 361.15151666136296C359.0009965258013 349.80520543288486 363.95073753822834 349.04301070779815 386.6137847353645 345.91098609370596C409.27683193250067 342.77896147961377 448.64261438683315 322.2397247214541 458.1962831379628 346.1177985137203C467.7499518890924 369.99587230598644 451.32682017510785 443.0355165608513 432.47139474078665 460.52574029658365 "></path><path d="M429.0981415689814 373.05890688625465C433.87497594454624 384.9979437823878 425.6634100875539 421.5177659098202 416.2356973703933 430.26287777768636C406.8079846532327 439.0079896455525 393.4156248692216 421.3013251339063 383.84512052661063 415.03544385201224C374.2746161839996 408.7695625701182 372.20108740726823 407.36574718541493 370.2972765258607 400.18664762459485C368.39346564445316 393.00754806377483 369.9131583288084 386.2489215743151 374.7068282958545 380.575765960076C379.5004982629007 374.902610345837 381.9753687691142 374.52151298329363 393.3068923676823 372.95550067624754C404.63841596625036 371.38948836920144 424.32130719341654 361.1198699901216 429.0981415689814 373.05890688625465C433.87497594454624 384.9979437823878 425.6634100875539 421.5177659098202 416.2356973703933 430.26287777768636 "></path></g></svg>