<svg xmlns="http://www.w3.org/2000/svg" version="1.1" xmlns:xlink="http://www.w3.org/1999/xlink" xmlns:svgjs="http://svgjs.dev/svgjs" viewBox="0 0 800 800" opacity="0.62"><g stroke-width="1" stroke="#b6cdef" fill="none"><path d="M729.754652171067 305.32517968188074C745.1646923396505 442.72314483797663 732.6467731293623 492.6628828843336 654.2501847883708 606.5472325708741C575.8535964473792 720.4315822574149 476.3134638548586 869.1738858738461 353.4510281343087 851.970058177275C230.58859241375887 834.766230480704 66.08138987273037 648.0199865172201 64.51049332973054 523.968859627333C62.939596786730704 399.91773273744593 238.4583291759419 376.7187865653427 345.9107247279087 256.52464910581784C453.3631202798756 136.33051164629296 500.31450709517935 -63.12977738173197 580.2819919791707 -52.96300017838547C660.249476863162 -42.796222975038916 714.3446120024836 167.92721452578473 729.754652171067 305.32517968188074C745.1646923396505 442.72314483797663 732.6467731293623 492.6628828843336 654.2501847883708 606.5472325708741 "></path><path d="M699.7769565191518 313.9319232681514C713.7860839451367 438.8391643191478 702.4061573903293 484.2389261794724 631.1365316257916 587.7701531672366C559.8669058612538 691.3013801550007 469.3758762316895 826.5216561699381 357.6827528493716 810.881812809419C245.98962946705353 795.2419694488999 96.43762715702763 625.4726567548238 95.00953939066414 512.6989050367445C93.58145162430066 399.92515331866525 253.14393561449265 378.835202253117 350.8279315708261 269.5678045626398C448.5119275271595 160.30040687216263 491.1950064501631 -21.02712860786005 563.8927199810644 -11.78460387754501C636.5904335119656 -2.5420791472300266 685.7678290931669 189.02468221715515 699.7769565191518 313.9319232681514C713.7860839451367 438.8391643191478 702.4061573903293 484.2389261794724 631.1365316257916 587.7701531672366 "></path><path d="M669.7992608672366 322.5387889247347C682.4074755506232 434.9553058706315 672.1655416512964 475.8150915449236 608.0228784632125 568.9931958339113C543.8802152751284 662.171300122899 462.4382886085207 783.8695485363428 361.9144775644344 769.7936895118755C261.3906665203482 755.7178304874083 126.79386444132484 602.9254490627397 125.5085854515977 501.4290725164685C124.2233064618706 399.9326959701972 267.8295420530434 380.9517400112038 355.74513841374346 282.6110820897743C443.66073477444365 184.27042416834485 482.0755058051468 21.075642236324427 547.5034479829579 29.39391449360795C612.9313901607691 37.71218675089142 657.1910461838502 210.12227197883817 669.7992608672366 322.5387889247347C682.4074755506232 434.9553058706315 672.1655416512964 475.8150915449236 608.0228784632125 568.9931958339113 "></path><path d="M639.8215804741105 331.1456240637399C651.0288824148985 431.07141690453705 641.9249411710525 467.3912263927966 584.9092405594224 550.216207983008C527.8935399477921 633.0411895732192 455.5007162441407 741.2174103851693 366.14621753828624 728.7055356967539C276.79171883243185 716.1936610083386 157.15011698441117 580.3782108530777 156.00764677132037 490.15920947861434C154.86517655822956 399.940208104151 282.5151637503832 383.06824725171236 360.66236051545 295.65432909933065C438.80955728051674 208.24041094694888 472.9560204189195 63.17838256293072 531.1141912436406 70.57240234718273C589.2723620683615 77.96642213143474 628.6142785333226 231.2198312229429 639.8215804741105 331.1456240637399C651.0288824148985 431.07141690453705 641.9249411710525 467.3912263927966 584.9092405594224 550.216207983008 "></path><path d="M609.8438695634063 339.75230661485443C619.6502587615958 427.18737535055186 611.6843101732306 458.96720865277916 561.7955721380541 531.4390675442139C511.9068341028776 603.9109264356489 448.5631133621828 698.5651196461051 370.3779269945601 687.6172292937417C292.19274062693745 676.6693389413783 187.50633900991932 557.830820055525 186.5066775734649 478.88919385286954C185.50701613701045 399.94756765021407 297.20075493014485 385.1846019043303 365.5795520995782 308.6974235209964C433.9583492690117 232.2102451376623 463.83650451511426 105.28097030164639 514.724903986745 111.75073761286694C565.6133034583759 118.22050492408744 600.0374803652169 252.31723787915706 609.8438695634063 339.75230661485443C619.6502587615958 427.18737535055186 611.6843101732306 458.96720865277916 561.7955721380541 531.4390675442139 "></path><path d="M579.8661739114912 348.3591417538596C588.2716503670821 423.3034863844575 581.4436944341976 450.5433435006521 538.6819189754749 512.6620796933107C495.9201435167523 574.7808158859691 441.6255257390137 655.9129814949317 374.6096517096229 646.5290754786201C307.5937776802321 637.1451694623087 217.86257629421658 535.283581845863 217.00572363439846 467.6193308150155C216.1488709745804 399.955079784168 311.8863613686956 387.30110914483896 370.4967589424957 321.7406705305526C429.10715651629573 256.18023191626634 454.71700387009787 147.38371062825274 498.3356319886386 152.92922546644172C541.9542601071794 158.47474030463076 571.4606974559001 273.41479712326185 579.8661739114912 348.3591417538596C588.2716503670821 423.3034863844575 581.4436944341976 450.5433435006521 538.6819189754749 512.6620796933107 "></path><path d="M549.888493518365 356.9659616340757C556.8930572313575 419.4195821595739 551.2030939539537 442.1194630897362 515.5682810716849 493.88507658361823C479.933468189416 545.6506900775004 434.6879533746338 613.260828084969 378.84139168347485 605.4409064047095C322.99482999231583 597.62098472445 248.21882883730285 512.7363283774118 247.50478495412113 456.34945251837223C246.79074107093942 399.9625766593326 326.5719830660354 389.41760112655857 375.4139810442021 334.7839022813199C424.2559790223688 280.1502034360813 445.59751848387054 189.48643569606998 481.94637524932125 194.1076980612275C518.2952320147718 198.72896042638502 542.8839298053725 294.5123411085776 549.888493518365 356.9659616340757C556.8930572313575 419.4195821595739 551.2030939539537 442.1194630897362 515.5682810716849 493.88507658361823 "></path><path d="M519.9107978664498 365.57276625550276C525.5144488368437 415.53566267590134 520.9624782149208 433.6955674200311 492.45462790910574 475.1080582151368C463.94677760329057 516.5205490102423 427.75036575146487 570.6086594162175 383.07311639853765 564.3527220720098C338.3958670456105 558.0967847278021 278.5750661216001 490.18905965017166 278.00383101505474 445.0795589629399C277.4325959085093 399.9700582757083 341.2575895045861 391.534077849489 380.33118788711954 347.82711877329814C419.4047862696529 304.1201596971073 436.47801783885427 231.5891455050982 465.5571032512148 235.2861553972242C494.63618866357524 238.9831652893502 514.3071468960559 315.6098698351043 519.9107978664498 365.57276625550276C525.5144488368437 415.53566267590134 520.9624782149208 433.6955674200311 492.45462790910574 475.1080582151368 "></path><path d="M489.93310221453464 374.179616653297C494.13584044233016 411.65178896859595 490.72186247588786 425.27171752669324 469.3409747465265 456.33108562302255C447.9600870171652 487.39045371935174 420.8127781282959 527.956536523833 387.3048411136005 523.2645835156773C353.7969040989051 518.5726305075216 308.9313034058973 467.64183669929866 308.5028770759883 433.8097111838749C308.07445074607926 399.9775856684512 355.94319594313686 393.65060034878667 385.2483947300369 360.8703810416435C414.5535935169369 328.0901617345004 427.358517193838 273.69190109049356 449.1678312531084 276.46465850958805C470.97714531237875 279.23741592868254 485.7303639867391 336.70744433799814 489.93310221453464 374.179616653297C494.13584044233016 411.65178896859595 490.72186247588786 425.27171752669324 469.3409747465265 456.33108562302255 "></path><path d="M459.95539130383037 382.7863907571459C462.7572167890273 407.7678389673452 460.48123147806587 416.8477913394101 446.22730632515834 437.5540367369629C431.97338117225075 458.2602821345157 413.8751752463379 485.3043373375033 391.5365505698743 482.1763686653994C369.1979258934107 479.04839999329556 339.2875254314055 445.09453745448036 339.00190787813284 422.5397871108645C338.71629032486015 399.9850367672487 370.62878712289853 395.76704655413903 390.16558631416524 373.9135670160436C409.70238550543195 352.0600874779482 418.2390012900326 315.7945803819436 432.7785439962129 317.64308532800663C447.3180867023931 319.4915902740696 457.1535658186334 357.8049425469467 459.95539130383037 382.7863907571459C462.7572167890273 407.7678389673452 460.48123147806587 416.8477913394101 446.22730632515834 437.5540367369629 "></path><path d="M429.9776956519152 391.39319537857295C431.37860839451366 403.88391948367257 430.24061573903293 408.4238956697051 423.11365316257917 418.77701836848144C415.9866905861254 429.13014106725785 406.93758762316895 442.65216866875164 395.76827528493715 441.0881843326997C384.59896294670534 439.5241999966478 369.64376271570274 422.5472687272402 369.5009539390664 411.26989355543225C369.35814516243005 399.9925183836243 385.31439356144926 397.8835232770695 395.0827931570826 386.9567835080218C404.851192752716 376.0300437389741 409.11950064501633 357.89729019097183 416.38927199810644 358.8215426640033C423.65904335119654 359.7457951370348 428.5767829093167 378.90247127347334 429.9776956519152 391.39319537857295C431.37860839451366 403.88391948367257 430.24061573903293 408.4238956697051 423.11365316257917 418.77701836848144 "></path></g></svg>